<svg width="1024" height="512" viewBox="0 0 1024 512" fill="none" xmlns="http://www.w3.org/2000/svg">
<rect width="1024" height="512" rx="32" fill="white"/>
<path d="M462.649 341.84C453.177 341.84 444.345 341.627 436.153 341.2C427.961 340.773 420.878 339.835 414.905 338.384C408.078 337.019 403.171 334.971 400.185 332.24C397.283 329.424 395.833 325.627 395.833 320.848C395.833 318.544 396.259 316.155 397.113 313.68C397.966 311.205 399.545 308.645 401.849 306C404.153 303.269 407.523 300.496 411.961 297.68C415.033 295.547 418.787 292.944 423.225 289.872C427.747 286.715 432.611 283.301 437.817 279.632C443.022 275.963 448.227 272.336 453.433 268.752C458.723 265.168 463.587 261.84 468.025 258.768C472.547 255.696 476.345 253.179 479.417 251.216C483.939 248.656 486.798 246.693 487.993 245.328C489.187 243.963 489.785 242.683 489.785 241.488C489.785 240.037 488.761 239.141 486.713 238.8C484.75 238.373 482.105 238.16 478.777 238.16C474.083 238.16 468.921 238.288 463.289 238.544C457.742 238.8 452.11 239.141 446.393 239.568C440.761 239.909 435.427 240.208 430.393 240.464C425.358 240.72 421.091 240.848 417.593 240.848C415.289 240.848 413.198 240.549 411.321 239.952C409.529 239.355 408.121 238.416 407.097 237.136C406.073 235.856 405.561 234.235 405.561 232.272C405.561 229.968 406.499 228.048 408.377 226.512C410.339 224.976 413.113 223.696 416.697 222.672C420.366 221.648 424.718 220.837 429.753 220.24C434.873 219.557 440.675 219.003 447.161 218.576C450.318 218.32 454.158 218.107 458.681 217.936C463.289 217.68 468.067 217.424 473.017 217.168C477.966 216.912 482.659 216.699 487.097 216.528C491.619 216.357 495.374 216.272 498.361 216.272C506.809 216.272 513.294 217.595 517.817 220.24C522.339 222.885 524.601 226.939 524.601 232.4C524.601 236.24 523.619 240.08 521.657 243.92C519.694 247.675 515.513 251.685 509.113 255.952C503.822 259.621 497.891 263.76 491.321 268.368C484.75 272.976 478.137 277.584 471.481 282.192C464.825 286.8 458.681 291.024 453.049 294.864C447.502 298.619 443.065 301.605 439.737 303.824C436.835 305.701 434.83 307.323 433.721 308.688C432.611 310.053 432.057 311.419 432.057 312.784C432.057 314.235 432.953 315.301 434.745 315.984C436.622 316.667 439.865 317.136 444.473 317.392C449.166 317.563 455.822 317.648 464.441 317.648C473.486 317.648 481.379 317.477 488.121 317.136C494.947 316.709 501.134 316.496 506.681 316.496C511.801 316.496 515.598 317.307 518.073 318.928C520.547 320.549 521.785 322.896 521.785 325.968C521.785 328.955 520.462 331.472 517.817 333.52C515.171 335.568 511.289 337.189 506.169 338.384C501.134 339.664 494.947 340.56 487.609 341.072C480.355 341.584 472.035 341.84 462.649 341.84ZM610.859 346.832C596.523 346.832 584.107 344.656 573.611 340.304C563.115 335.952 555.008 329.253 549.291 320.208C543.573 311.077 540.715 299.472 540.715 285.392C540.715 273.701 542.635 263.504 546.475 254.8C550.4 246.011 555.776 238.672 562.603 232.784C569.429 226.896 577.323 222.501 586.283 219.6C595.243 216.613 604.8 215.12 614.955 215.12C621.867 215.12 628.395 215.845 634.539 217.296C640.768 218.747 646.272 221.008 651.051 224.08C655.915 227.067 659.712 230.907 662.443 235.6C665.173 240.293 666.539 245.883 666.539 252.368C666.539 259.28 665.088 264.912 662.187 269.264C659.285 273.531 655.317 276.901 650.283 279.376C645.248 281.765 639.531 283.557 633.131 284.752C626.816 285.861 620.203 286.715 613.291 287.312C609.792 287.909 605.653 288.421 600.875 288.848C596.096 289.189 591.445 289.488 586.923 289.744C582.485 289.915 579.029 290 576.555 290C573.995 290 572.245 290.341 571.307 291.024C570.368 291.707 569.899 292.944 569.899 294.736C569.899 296.869 570.496 299.387 571.691 302.288C572.885 305.104 574.592 307.877 576.811 310.608C580.907 315.643 585.643 319.013 591.019 320.72C596.48 322.341 603.179 323.152 611.115 323.152C618.027 323.152 624.341 322.341 630.059 320.72C635.776 319.013 640.896 317.349 645.419 315.728C650.027 314.021 654.165 313.168 657.835 313.168C661.163 313.168 663.765 313.808 665.643 315.088C667.605 316.283 668.587 318.672 668.587 322.256C668.587 325.499 667.093 328.613 664.107 331.6C661.205 334.587 657.152 337.189 651.947 339.408C646.741 341.712 640.64 343.504 633.643 344.784C626.645 346.149 619.051 346.832 610.859 346.832ZM600.747 275.664C607.659 275.664 614.101 275.024 620.075 273.744C626.048 272.379 630.869 270.117 634.539 266.96C638.293 263.717 640.171 259.28 640.171 253.648C640.171 246.992 637.739 242 632.875 238.672C628.011 235.259 621.184 233.552 612.395 233.552C607.189 233.552 602.112 234.491 597.163 236.368C592.213 238.16 587.819 240.677 583.979 243.92C580.139 247.163 577.067 250.832 574.763 254.928C572.459 259.024 571.307 263.419 571.307 268.112C571.307 270.501 572.245 272.251 574.123 273.36C576.085 274.384 579.2 275.024 583.467 275.28C587.819 275.536 593.579 275.664 600.747 275.664ZM709.609 341.456C705.598 341.456 702.398 340.645 700.009 339.024C697.705 337.488 696.083 335.013 695.145 331.6C694.206 328.101 693.737 323.707 693.737 318.416C693.737 315.515 693.779 312.016 693.865 307.92C694.035 303.824 694.249 299.387 694.505 294.608C694.761 289.744 695.059 284.837 695.401 279.888C695.742 274.939 696.126 270.203 696.553 265.68C696.979 261.072 697.406 256.933 697.833 253.264C698.259 249.595 698.686 246.651 699.113 244.432C700.819 239.056 703.337 235.045 706.665 232.4C710.078 229.755 714.345 228.432 719.465 228.432C724.329 228.432 727.87 230.267 730.089 233.936C732.307 237.605 733.417 242.896 733.417 249.808C733.417 252.368 733.331 255.824 733.161 260.176C732.99 264.528 732.734 269.349 732.393 274.64C732.051 279.931 731.667 285.349 731.241 290.896C730.899 296.443 730.43 301.776 729.833 306.896C729.321 311.931 728.809 316.411 728.297 320.336C727.785 324.176 727.187 327.077 726.505 329.04C724.798 333.648 722.537 336.848 719.721 338.64C716.99 340.517 713.619 341.456 709.609 341.456ZM718.313 208.592C710.291 208.592 704.787 207.227 701.801 204.496C698.814 201.765 697.321 198.693 697.321 195.28C697.321 190.928 698.899 187.301 702.057 184.4C705.214 181.413 709.097 179.152 713.705 177.616C718.313 176.08 722.921 175.312 727.529 175.312C730.857 175.312 733.929 175.867 736.745 176.976C739.561 178.085 741.779 179.792 743.401 182.096C745.107 184.4 745.961 187.429 745.961 191.184C745.961 195.28 744.681 198.608 742.121 201.168C739.561 203.728 736.19 205.605 732.009 206.8C727.827 207.995 723.262 208.592 718.313 208.592ZM838.931 344.784C829.032 344.784 819.475 343.675 810.259 341.456C801.128 339.237 792.936 335.696 785.683 330.832C778.515 325.968 772.84 319.653 768.659 311.888C764.477 304.037 762.387 294.48 762.387 283.216C762.387 270.843 764.392 260.048 768.403 250.832C772.499 241.531 778.131 233.808 785.299 227.664C792.467 221.435 800.744 216.784 810.131 213.712C819.603 210.555 829.715 208.976 840.467 208.976C850.195 208.976 859.709 210.213 869.011 212.688C878.312 215.163 886.675 219.045 894.099 224.336C901.523 229.627 907.411 236.496 911.763 244.944C916.2 253.307 918.419 263.419 918.419 275.28C918.419 284.24 916.584 292.859 912.915 301.136C909.331 309.413 904.083 316.837 897.171 323.408C890.344 329.893 882.024 335.056 872.211 338.896C862.483 342.821 851.389 344.784 838.931 344.784ZM837.779 316.496C846.483 316.496 853.864 315.173 859.923 312.528C865.981 309.797 870.888 306.256 874.643 301.904C878.483 297.467 881.256 292.645 882.963 287.44C884.755 282.235 885.651 277.072 885.651 271.952C885.651 264.784 884.243 258.725 881.427 253.776C878.696 248.741 875.027 244.688 870.419 241.616C865.896 238.544 860.819 236.325 855.187 234.96C849.555 233.509 843.795 232.784 837.907 232.784C830.227 232.784 822.973 234.448 816.147 237.776C809.32 241.019 803.773 245.968 799.507 252.624C795.325 259.195 793.235 267.515 793.235 277.584C793.235 285.776 794.899 292.816 798.227 298.704C801.64 304.507 806.675 308.944 813.331 312.016C819.987 315.003 828.136 316.496 837.779 316.496Z" fill="black"/>
<path d="M352.814 259.28L352.801 259.237L352.788 259.195C348.205 244.439 341.92 231.222 333.83 219.68L333.797 219.632L333.763 219.585C325.688 208.29 316.425 198.668 305.944 190.832C295.596 182.973 284.525 176.946 272.744 172.845L268.654 184.593L272.744 172.845C261.122 168.799 249.5 166.625 237.923 166.456C227.341 166.301 216.495 168.765 205.52 173.344C194.455 177.96 183.825 184.596 173.616 193.073C163.248 201.561 153.939 211.813 145.649 223.719C137.063 235.835 130.197 249.386 125.001 264.294C119.679 279.562 116.884 295.96 116.505 313.399C116.283 323.632 122.716 330.517 129.942 334.377L130.056 334.438L130.171 334.496C136.348 337.635 143.942 339.746 152.436 341.177C160.495 342.696 169.574 343.888 179.633 344.778L179.71 344.784L179.786 344.79C189.871 345.557 200.384 346.019 211.319 346.18C236.917 346.555 258.843 346.574 277.071 346.233L277.115 346.232L277.159 346.231C295.386 345.762 310.559 344.437 322.426 342.119C332.091 340.248 340.884 337.087 347.525 331.731C354.655 325.981 358.755 318.098 358.957 308.813C359.346 290.872 357.367 274.315 352.814 259.28Z" fill="#C6DA93"/>
<path d="M352.814 259.28L352.801 259.237L352.788 259.195C348.205 244.439 341.92 231.222 333.83 219.68L333.797 219.632L333.763 219.585C325.688 208.29 316.425 198.668 305.944 190.832C295.596 182.973 284.525 176.946 272.744 172.845L268.654 184.593L272.744 172.845C261.122 168.799 249.5 166.625 237.923 166.456C227.341 166.301 216.495 168.765 205.52 173.344C194.455 177.96 183.825 184.596 173.616 193.073C163.248 201.561 153.939 211.813 145.649 223.719C137.063 235.835 130.197 249.386 125.001 264.294C119.679 279.562 116.884 295.96 116.505 313.399C116.283 323.632 122.716 330.517 129.942 334.377L130.056 334.438L130.171 334.496C136.348 337.635 143.942 339.746 152.436 341.177C160.495 342.696 169.574 343.888 179.633 344.778L179.71 344.784L179.786 344.79C189.871 345.557 200.384 346.019 211.319 346.18C236.917 346.555 258.843 346.574 277.071 346.233L277.115 346.232L277.159 346.231C295.386 345.762 310.559 344.437 322.426 342.119C332.091 340.248 340.884 337.087 347.525 331.731C354.655 325.981 358.755 318.098 358.957 308.813C359.346 290.872 357.367 274.315 352.814 259.28Z" fill="url(#paint0_radial_269_157)" fill-opacity="0.2"/>
<path d="M352.814 259.28L352.801 259.237L352.788 259.195C348.205 244.439 341.92 231.222 333.83 219.68L333.797 219.632L333.763 219.585C325.688 208.29 316.425 198.668 305.944 190.832C295.596 182.973 284.525 176.946 272.744 172.845L268.654 184.593L272.744 172.845C261.122 168.799 249.5 166.625 237.923 166.456C227.341 166.301 216.495 168.765 205.52 173.344C194.455 177.96 183.825 184.596 173.616 193.073C163.248 201.561 153.939 211.813 145.649 223.719C137.063 235.835 130.197 249.386 125.001 264.294C119.679 279.562 116.884 295.96 116.505 313.399C116.283 323.632 122.716 330.517 129.942 334.377L130.056 334.438L130.171 334.496C136.348 337.635 143.942 339.746 152.436 341.177C160.495 342.696 169.574 343.888 179.633 344.778L179.71 344.784L179.786 344.79C189.871 345.557 200.384 346.019 211.319 346.18C236.917 346.555 258.843 346.574 277.071 346.233L277.115 346.232L277.159 346.231C295.386 345.762 310.559 344.437 322.426 342.119C332.091 340.248 340.884 337.087 347.525 331.731C354.655 325.981 358.755 318.098 358.957 308.813C359.346 290.872 357.367 274.315 352.814 259.28Z" stroke="black" stroke-width="25"/>
<ellipse cx="27.9537" cy="17.1787" rx="27.9537" ry="17.1787" transform="matrix(-0.922655 0.385627 -0.271375 -0.962474 306.708 242.018)" fill="#F3FFD3"/>
<ellipse cx="27.4791" cy="16.8868" rx="27.4791" ry="16.8868" transform="matrix(-0.922628 -0.385691 0.271424 -0.96246 223.503 262.651)" fill="#F3FFD3"/>
<defs>
<radialGradient id="paint0_radial_269_157" cx="0" cy="0" r="1" gradientUnits="userSpaceOnUse" gradientTransform="translate(240.134 266.676) rotate(-1.15968) scale(119.011 122.324)">
<stop offset="0.71875" stop-opacity="0"/>
<stop offset="0.724771" stop-color="#28330B"/>
</radialGradient>
</defs>
</svg>
